# xmcd
#
# Track frame offsets:
#	150
#	20887
#	41373
#	60350
#	78634
#	93201
#	110872
#	137029
#	151989
#	166742
#	182292
#	203048
#	224291
#	242912
#	262642
#	280243
#	296891
#	310508
#	324399
#	335982
#
# Disc length: 4693 seconds
# Revision: 1
# Processed by: cddbd v1.5.2PL0 Copyright (c) Steve Scherf et al.
# Submitted via: dBpowerAMP V12.0
#
DISCID=1b125314
DTITLE=Martina McBride - The Essential Martina McBride
DYEAR=2012
DGENRE=Country
TTITLE0=Blessed
TTITLE1=Where Would You Be
TTITLE2=Concrete Angel
TTITLE3=This One's For The Girls
TTITLE4=In My Daughter's Eyes
TTITLE5=How Far
TTITLE6=God's Will
TTITLE7=Trip Around The Sun [w/Jimmy Buffett]
TTITLE8=(I Never Promised You A) Rose Garden
TTITLE9=Harper Valley P.T.A.
TTITLE10=Feels Like Home [w/Raul Malo]
TTITLE11=Anyway
TTITLE12=Through Your Eyes
TTITLE13=I Just Call You Mine
TTITLE14=Ride
TTITLE15=Wrong Baby Wrong Baby Wrong
TTITLE16=Louisiana Woman, Mississippi Man [w/Alan Jackson]
TTITLE17=At Last
TTITLE18=Sweet Dreams (Of You) [w/Take 6]
TTITLE19=Over The Rainbow
EXTD=
EXTT0=
EXTT1=
EXTT2=
EXTT3=
EXTT4=
EXTT5=
EXTT6=
EXTT7=
EXTT8=
EXTT9=
EXTT10=
EXTT11=
EXTT12=
EXTT13=
EXTT14=
EXTT15=
EXTT16=
EXTT17=
EXTT18=
EXTT19=
PLAYORDER=
